<mxfile host="app.diagrams.net" agent="Mozilla/5.0 (Windows NT 10.0; Win64; x64; rv:133.0) Gecko/20100101 Firefox/133.0" version="26.0.9">
  <diagram name="Page-1" id="zlxh3_FURENLlaDQN8fC">
    <mxGraphModel dx="1050" dy="538" grid="1" gridSize="10" guides="1" tooltips="1" connect="1" arrows="1" fold="1" page="1" pageScale="1" pageWidth="850" pageHeight="1100" math="0" shadow="0">
      <root>
        <mxCell id="0" />
        <mxCell id="1" parent="0" />
        <mxCell id="hTxbjXE2mDDGzQtdPCSj-48" value="" style="rounded=0;whiteSpace=wrap;html=1;fillColor=none;strokeWidth=3;strokeColor=#6c8ebf;" parent="1" vertex="1">
          <mxGeometry x="260" y="799" width="420" height="120" as="geometry" />
        </mxCell>
        <mxCell id="hTxbjXE2mDDGzQtdPCSj-19" value="" style="rounded=0;whiteSpace=wrap;html=1;fillColor=none;strokeWidth=3;" parent="1" vertex="1">
          <mxGeometry x="270" y="30" width="540" height="140" as="geometry" />
        </mxCell>
        <mxCell id="q3px7ivAneMf90vBxlYq-1" style="edgeStyle=orthogonalEdgeStyle;rounded=0;orthogonalLoop=1;jettySize=auto;html=1;exitX=0.5;exitY=1;exitDx=0;exitDy=0;entryX=0.5;entryY=0;entryDx=0;entryDy=0;" edge="1" parent="1" source="hTxbjXE2mDDGzQtdPCSj-1" target="hTxbjXE2mDDGzQtdPCSj-21">
          <mxGeometry relative="1" as="geometry" />
        </mxCell>
        <mxCell id="hTxbjXE2mDDGzQtdPCSj-1" value="&lt;div&gt;base&lt;/div&gt;" style="rectangle;whiteSpace=wrap;html=1;fillColor=#d5e8d4;strokeColor=#82b366;" parent="1" vertex="1">
          <mxGeometry x="330" y="190" width="350" height="80" as="geometry" />
        </mxCell>
        <mxCell id="hTxbjXE2mDDGzQtdPCSj-17" style="edgeStyle=orthogonalEdgeStyle;rounded=0;orthogonalLoop=1;jettySize=auto;html=1;exitX=0.5;exitY=1;exitDx=0;exitDy=0;entryX=1;entryY=0.5;entryDx=0;entryDy=0;" parent="1" source="hTxbjXE2mDDGzQtdPCSj-15" target="hTxbjXE2mDDGzQtdPCSj-21" edge="1">
          <mxGeometry relative="1" as="geometry">
            <Array as="points">
              <mxPoint x="740" y="120" />
              <mxPoint x="738" y="120" />
              <mxPoint x="738" y="409" />
            </Array>
            <mxPoint x="738.2842712474621" y="451.71572875253787" as="targetPoint" />
          </mxGeometry>
        </mxCell>
        <mxCell id="hTxbjXE2mDDGzQtdPCSj-39" value="COPY" style="edgeLabel;html=1;align=center;verticalAlign=middle;resizable=0;points=[];" parent="hTxbjXE2mDDGzQtdPCSj-17" vertex="1" connectable="0">
          <mxGeometry x="0.7822" y="-1" relative="1" as="geometry">
            <mxPoint x="-10" y="-8" as="offset" />
          </mxGeometry>
        </mxCell>
        <mxCell id="hTxbjXE2mDDGzQtdPCSj-15" value="SASHome" style="ellipse;whiteSpace=wrap;html=1;fillColor=#e1d5e7;strokeColor=#9673a6;" parent="1" vertex="1">
          <mxGeometry x="700" y="60" width="80" height="80" as="geometry" />
        </mxCell>
        <mxCell id="q3px7ivAneMf90vBxlYq-3" style="edgeStyle=orthogonalEdgeStyle;rounded=0;orthogonalLoop=1;jettySize=auto;html=1;exitX=0.5;exitY=1;exitDx=0;exitDy=0;" edge="1" parent="1" source="hTxbjXE2mDDGzQtdPCSj-16" target="hTxbjXE2mDDGzQtdPCSj-1">
          <mxGeometry relative="1" as="geometry" />
        </mxCell>
        <mxCell id="hTxbjXE2mDDGzQtdPCSj-16" value="datascience&lt;br&gt;notebook" style="ellipse;whiteSpace=wrap;html=1;fillColor=#e1d5e7;strokeColor=#9673a6;" parent="1" vertex="1">
          <mxGeometry x="465" y="60" width="80" height="80" as="geometry" />
        </mxCell>
        <mxCell id="hTxbjXE2mDDGzQtdPCSj-20" value="Upsteam Images" style="text;html=1;align=center;verticalAlign=middle;whiteSpace=wrap;rounded=0;" parent="1" vertex="1">
          <mxGeometry x="270" y="40" width="60" height="30" as="geometry" />
        </mxCell>
        <mxCell id="hTxbjXE2mDDGzQtdPCSj-25" value="" style="rectangle;whiteSpace=wrap;html=1;fillColor=#f8cecc;strokeColor=#b85450;" parent="1" vertex="1">
          <mxGeometry x="330" y="679" width="350" height="80" as="geometry" />
        </mxCell>
        <mxCell id="hTxbjXE2mDDGzQtdPCSj-32" value="jupyterlab-cpu" style="ellipse;whiteSpace=wrap;html=1;" parent="1" vertex="1">
          <mxGeometry x="372" y="819" width="90" height="80" as="geometry" />
        </mxCell>
        <mxCell id="hTxbjXE2mDDGzQtdPCSj-35" value="sas" style="ellipse;whiteSpace=wrap;html=1;" parent="1" vertex="1">
          <mxGeometry x="548" y="819" width="90" height="80" as="geometry" />
        </mxCell>
        <mxCell id="hTxbjXE2mDDGzQtdPCSj-49" value="&lt;font style=&quot;font-size: 15px;&quot;&gt;Final Images&lt;/font&gt;" style="text;html=1;align=center;verticalAlign=middle;whiteSpace=wrap;rounded=0;" parent="1" vertex="1">
          <mxGeometry x="260" y="809" width="60" height="30" as="geometry" />
        </mxCell>
        <mxCell id="ty-XCMfTDVM0uD_hAozX-6" value="Base" style="rectangle;whiteSpace=wrap;html=1;fillColor=#d5e8d4;strokeColor=#82b366;direction=west;textDirection=ltr;horizontal=0;fontSize=24;" parent="1" vertex="1">
          <mxGeometry x="270" y="180" width="60" height="120" as="geometry" />
        </mxCell>
        <mxCell id="ty-XCMfTDVM0uD_hAozX-8" value="CMD" style="rectangle;whiteSpace=wrap;html=1;fillColor=#f8cecc;strokeColor=#b85450;horizontal=0;fontSize=24;" parent="1" vertex="1">
          <mxGeometry x="270" y="659.5" width="60" height="119" as="geometry" />
        </mxCell>
        <mxCell id="q3px7ivAneMf90vBxlYq-6" style="edgeStyle=orthogonalEdgeStyle;rounded=0;orthogonalLoop=1;jettySize=auto;html=1;exitX=0.75;exitY=1;exitDx=0;exitDy=0;entryX=0.5;entryY=0;entryDx=0;entryDy=0;" edge="1" parent="1" source="hTxbjXE2mDDGzQtdPCSj-21" target="q3px7ivAneMf90vBxlYq-5">
          <mxGeometry relative="1" as="geometry" />
        </mxCell>
        <mxCell id="q3px7ivAneMf90vBxlYq-7" style="edgeStyle=orthogonalEdgeStyle;rounded=0;orthogonalLoop=1;jettySize=auto;html=1;exitX=0.25;exitY=1;exitDx=0;exitDy=0;" edge="1" parent="1" source="hTxbjXE2mDDGzQtdPCSj-21" target="q3px7ivAneMf90vBxlYq-4">
          <mxGeometry relative="1" as="geometry" />
        </mxCell>
        <mxCell id="hTxbjXE2mDDGzQtdPCSj-21" value="mid" style="rectangle;whiteSpace=wrap;html=1;fillColor=#fff2cc;strokeColor=#d6b656;" parent="1" vertex="1">
          <mxGeometry x="330" y="369" width="350" height="80" as="geometry" />
        </mxCell>
        <mxCell id="wxKCdzHfKvLAPwGIz8D_-1" value="Mid" style="rectangle;whiteSpace=wrap;html=1;fillColor=#fff2cc;strokeColor=#d6b656;direction=west;textDirection=ltr;horizontal=0;fontSize=24;" parent="1" vertex="1">
          <mxGeometry x="270" y="359" width="60" height="120" as="geometry" />
        </mxCell>
        <mxCell id="q3px7ivAneMf90vBxlYq-11" style="edgeStyle=orthogonalEdgeStyle;rounded=0;orthogonalLoop=1;jettySize=auto;html=1;exitX=0.5;exitY=1;exitDx=0;exitDy=0;entryX=0.5;entryY=0;entryDx=0;entryDy=0;" edge="1" parent="1" source="q3px7ivAneMf90vBxlYq-4" target="hTxbjXE2mDDGzQtdPCSj-32">
          <mxGeometry relative="1" as="geometry" />
        </mxCell>
        <mxCell id="q3px7ivAneMf90vBxlYq-4" value="jupyterlab" style="ellipse;whiteSpace=wrap;html=1;" vertex="1" parent="1">
          <mxGeometry x="372" y="520" width="90" height="80" as="geometry" />
        </mxCell>
        <mxCell id="q3px7ivAneMf90vBxlYq-10" style="edgeStyle=orthogonalEdgeStyle;rounded=0;orthogonalLoop=1;jettySize=auto;html=1;exitX=0.5;exitY=1;exitDx=0;exitDy=0;entryX=0.5;entryY=0;entryDx=0;entryDy=0;" edge="1" parent="1" source="q3px7ivAneMf90vBxlYq-5" target="hTxbjXE2mDDGzQtdPCSj-35">
          <mxGeometry relative="1" as="geometry" />
        </mxCell>
        <mxCell id="q3px7ivAneMf90vBxlYq-5" value="sas" style="ellipse;whiteSpace=wrap;html=1;" vertex="1" parent="1">
          <mxGeometry x="548" y="520" width="90" height="80" as="geometry" />
        </mxCell>
      </root>
    </mxGraphModel>
  </diagram>
</mxfile>
